# AST/ASF file generated using VICON BodyLanguage
# -----------------------------------------------
:version 1.10
:name VICON
:units
  mass 1.0
  length 0.45
  angle deg
:documentation
   .ast/.asf automatically generated from VICON data using
   VICON BodyBuilder and BodyLanguage model FoxedUp or BRILLIANT.MOD
:root
   order TX TY TZ RX RY RZ
   axis XYZ
   position 0 0 0  
   orientation 0 0 0 
:bonedata
  begin
     id 1 
     name lhipjoint
     direction 0.576517 -0.752066 0.319413 
     length 2.45433 
     axis 0 0 0  XYZ
  end
  begin
     id 2 
     name lfemur
     direction 0.34202 -0.939693 0  
     length 7.54459  
     axis 0 0 20  XYZ
    dof rx ry rz
    limits (-160.0 20.0)
           (-70.0 70.0)
           (-60.0 70.0)
  end
  begin
     id 3 
     name ltibia
     direction 0.34202 -0.939693 0   
     length 7.73986   
     axis 0 0 20   XYZ
    dof rx
    limits (-10.0 170.0)
  end
  begin
     id 4 
     name lfoot
     direction 0.090693 -0.249177 0.964202   
     length 2.28437   
     axis -90 7.62852e-016 20   XYZ
    dof rx rz
    limits (-45.0 90.0)
           (-70.0 20.0)
  end
  begin
     id 5 
     name ltoes
     direction 1.5356e-011 -4.21928e-011 1   
     length 1.14243   
     axis -90 7.62852e-016 20   XYZ
    dof rx
    limits (-90.0 20.0)
  end
  begin
     id 6 
     name rhipjoint
     direction -0.573937 -0.753736 0.320122   
     length 2.44889  
     axis 0 0 0  XYZ 
  end
  begin
     id 7 
     name rfemur
     direction -0.34202 -0.939693 0   
     length 7.50166   
     axis 0 0 -20   XYZ
    dof rx ry rz
    limits (-160.0 20.0)
           (-70.0 70.0)
           (-70.0 60.0)
  end
  begin
     id 8 
     name rtibia
     direction -0.34202 -0.939693 0   
     length 7.54266   
     axis 0 0 -20   XYZ
    dof rx
    limits (-10.0 170.0)
 end
 begin
     id 9 
     name rfoot
     direction -0.114017 -0.31326 0.942798   
     length 2.34212  
     axis -90 -7.62852e-016 -20   XYZ
    dof rx rz
    limits (-45.0 90.0)
           (-20.0 70.0)
  end
  begin
     id 10 
     name rtoes
     direction -1.53557e-011 -4.21867e-011 1   
     length 1.16246   
     axis -90 -7.62852e-016 -20   XYZ
    dof rx
    limits (-90.0 20.0)
  end
  begin
     id 11 
     name lowerback
     direction -0.0228371 0.999155 -0.034167   
     length 2.0537   
     axis 0 0 0   XYZ
    dof rx ry rz
    limits (-20.0 45.0)
           (-30.0 30.0)
           (-30.0 30.0)
  end
  begin
     id 12 
     name upperback
     direction 0.0198981 0.999794 0.00389455   
     length 2.05302   
     axis 0 0 0   XYZ
    dof rx ry rz
    limits (-20.0 45.0)
           (-30.0 30.0)
           (-30.0 30.0)
  end
  begin
     id 13 
     name thorax
     direction 0.0304566 0.99935 0.0192987   
     length 2.05315   
     axis 0 0 0   XYZ
    dof rx ry rz
    limits (-20.0 45.0)
           (-30.0 30.0)
           (-30.0 30.0)
  end
  begin
     id 14 
     name lowerneck
     direction -0.0196762 0.99417 0.106017   
     length 1.82056   
     axis 0 0 0   XYZ
    dof rx ry rz
    limits (-20.0 45.0)
           (-30.0 30.0)
           (-30.0 30.0)
  end
  begin
     id 15 
     name upperneck
     direction 0.00517787 0.9802 -0.197944   
     length 1.83835   
     axis 0 0 0   XYZ
    dof rx ry rz
    limits (-20.0 45.0)
           (-30.0 30.0)
           (-30.0 30.0)
  end
  begin
     id 16
     name head
     direction 0.00211419 0.996945 -0.078081  
     length 1.85629  
     axis 0 0 0   XYZ
    dof rx ry rz
    limits (-20.0 45.0)
           (-30.0 30.0)
           (-30.0 30.0)
  end
  begin
     id 17 
     name lclavicle
     direction 0.930001 0.365811 -0.0357824  
     length 3.81961  
     axis 0 0 0   XYZ
    dof ry rz
    limits (-20.0 10.0)
           (0.0 20.0)
  end
  begin
     id 18 
     name lhumerus
     direction 1 -4.48968e-011 -3.06644e-027   
     length 5.14507   
     axis 180 -30 -90   XYZ
    dof rx ry rz
    limits (-60.0 90.0)
           (-90.0 90.0)
           (-90.0 90.0)
  end
  begin
     id 19
     name lradius
     direction 1 -4.48965e-011 9.06925e-028   
     length 3.50646   
     axis 180 -30 -90   XYZ
    dof rx
    limits (-10.0 170.0)
  end
  begin
     id 20
     name lwrist
     direction 1 -4.48957e-011 1.03922e-027   
     length 1.75323   
     axis -2.56395e-016 90 90   XYZ
    dof ry
    limits (-180.0 0.0)
 end
  begin
     id 21 
     name lhand
     direction 1 -4.48967e-011 2.08017e-027   
     length 0.629969   
     axis -1.32723e-015 90 90   XYZ
    dof rx rz
    limits (-90.0 90.0)
           (-45.0 45.0)
  end
  begin
     id 22 
     name lfingers
     direction 1 -4.49089e-011 4.20095e-027   
     length 0.507897   
     axis -2.6545e-015 90 90   XYZ
    dof rx
    limits (0.0 90.0)
  end
  begin
     id 23
     name lthumb
     direction 0.707107 -6.35001e-011 0.707107   
     length 0.729241   
     axis -90 45 5.05613e-014   XYZ
    dof rx rz
    limits (-45.0 45.0)
           (-45.0 45.0)
  end
  begin
     id 24 
     name rclavicle
     direction -0.881882 0.464123 -0.0829113   
     length 3.47515  
     axis 0 0 0   XYZ 
    dof ry rz
    limits (-10.0 20.0)
           (-20.0 0.0)
  end
  begin
     id 25 
     name rhumerus
     direction -1 -4.48961e-011 -1.55672e-027  
     length 5.232   
     axis 180 30 90   XYZ
    dof rx ry rz
    limits (-90.0 60.0)
           (-90.0 90.0)
           (-90.0 90.0)
  end
  begin
     id 26 
     name rradius
     direction -1 -4.48963e-011 6.18178e-029   
     length 3.65641   
     axis 180 30 90   XYZ
    dof rx
    limits (-10.0 170.0)
  end
  begin
     id 27 
     name rwrist
     direction -1 -4.48982e-011 1.04136e-027   
     length 1.8282   
     axis -2.56395e-016 -90 -90   XYZ
    dof ry
    limits (-180.0 0.0)
  end
  begin
     id 28
     name rhand
     direction -1 -4.48929e-011 2.07378e-027   
     length 0.656807   
     axis -1.32723e-015 -90 -90   XYZ
    dof rx rz
    limits (-90.0 90.0)
           (-45.0 45.0)
  end
  begin
     id 29
     name rfingers
     direction -1 -4.489e-011 4.13816e-027   
     length 0.529535   
     axis -2.6545e-015 -90 -90   XYZ
    dof rx
    limits (0.0 90.0)
  end
  begin
     id 30
     name rthumb
     direction -0.707107 -6.34843e-011 0.707107   
     length 0.760309   
     axis -90 -45 -5.05613e-014   XYZ
    dof rx rz
    limits (-45.0 45.0)
           (-45.0 45.0)
  end
:hierarchy
  begin
    root lhipjoint rhipjoint lowerback
    lhipjoint lfemur
    lfemur ltibia
    ltibia lfoot
    lfoot ltoes
    rhipjoint rfemur
    rfemur rtibia
    rtibia rfoot
    rfoot rtoes
    lowerback upperback
    upperback thorax
    thorax lowerneck lclavicle rclavicle
    lowerneck upperneck
    upperneck head
    lclavicle lhumerus
    lhumerus lradius
    lradius lwrist
    lwrist lhand lthumb
    lhand lfingers
    rclavicle rhumerus
    rhumerus rradius
    rradius rwrist
    rwrist rhand rthumb
    rhand rfingers
  end

#!OML:ASF H:\ManfredETheater\Project 1\Capture day 1\Session 1\subject.ASF
:FULLY-SPECIFIED
:DEGREES
16
root 14.5081 15.8271 -37.0911 27.1592 11.3086 15.4985
lowerback 16.4923 -3.44805 -4.08668
upperback -0.474222 -5.57669 -2.2851
thorax -9.62042 -2.51253 1.18321
lowerneck -15.1156 -7.04457 -7.40191
upperneck -4.01268 -8.29148 7.60205
head 2.04588 -3.87693 3.27251
rclavicle -4.37326e-015 3.85642e-014
rhumerus -66.4624 -2.62349 -82.7034
rradius 61.0036
rwrist -18.7997
rhand -24.7556 10.0401
rfingers 7.12502
rthumb 1.74762 -19.9324
lclavicle -4.37326e-015 3.85642e-014
lhumerus -31.2024 -15.5662 104.561
lradius 111.089
lwrist 18.3182
lhand -20.1557 -10.7048
lfingers 7.12502
lthumb 6.18946 19.1848
rfemur -63.1069 -14.3658 16.446
rtibia 106.686
rfoot -8.293 -3.63783
rtoes -26.5536
lfemur -31.4871 -3.55078 -29.3876
ltibia 57.4049
lfoot -38.1595 -8.51552
ltoes -6.68513
17
root 14.4866 15.8396 -36.5522 27.1729 11.1724 15.6933
lowerback 16.1223 -3.644 -4.14557
upperback -0.585507 -5.83346 -2.27584
thorax -9.51599 -2.63636 1.26337
lowerneck -15.3139 -7.14358 -7.54917
upperneck -3.43038 -8.40122 7.97286
head 2.04666 -3.90538 3.08297
rclavicle 3.10104e-014 -6.75868e-015
rhumerus -68.9191 -1.74417 -82.9851
rradius 61.596
rwrist -18.2398
rhand -24.515 10.6752
rfingers 7.12502
rthumb 1.97993 -19.2954
lclavicle 3.10104e-014 -6.75868e-015
lhumerus -29.3658 -17.0085 104.488
lradius 114.443
lwrist 19.6972
lhand -19.9004 -10.6608
lfingers 7.12502
lthumb 6.43598 19.2214
rfemur -66.4611 -13.9916 16.4445
rtibia 105.282
rfoot -9.15979 -4.2663
rtoes -27.191
lfemur -28.4332 -3.80338 -29.0437
ltibia 55.2083
lfoot -37.3675 -8.41843
ltoes -9.92362
18
root 14.4626 15.8637 -36.0002 27.1342 10.8952 15.817
lowerback 15.7288 -3.80285 -4.24124
upperback -0.694067 -6.04507 -2.25553
thorax -9.39101 -2.73765 1.36092
lowerneck -15.305 -7.23158 -7.78445
upperneck -3.06752 -8.50308 8.15862
head 2.18193 -3.94686 3.16065
rclavicle 9.54166e-015 -1.35174e-014
rhumerus -71.2578 -0.884481 -83.3146
rradius 62.2833
rwrist -17.6658
rhand -24.2745 11.1527
rfingers 7.12502
rthumb 2.21223 -18.8156
lclavicle 9.54166e-015 -1.35174e-014
lhumerus -27.7618 -18.4605 104.191
lradius 117.824
lwrist 21.0675
lhand -19.6391 -10.6296
lfingers 7.12502
lthumb 6.68821 19.2448
rfemur -69.3953 -13.3829 16.4308
rtibia 103.217
rfoot -9.92248 -4.91645
rtoes -28.07
lfemur -25.3137 -4.01925 -28.6856
ltibia 52.8613
lfoot -35.9448 -8.48233
ltoes -13.3123
19
root 14.436 15.8973 -35.4365 27.0177 10.4612 15.8782
lowerback 15.34 -3.90881 -4.37834
upperback -0.781464 -6.19235 -2.23605
thorax -9.24283 -2.80734 1.46328
lowerneck -15.3553 -7.32479 -8.03167
upperneck -2.62458 -8.60968 8.33348
head 2.35102 -3.98902 3.23331
rclavicle -4.92986e-014 -2.82274e-014
rhumerus -73.4331 -0.11215 -83.646
rradius 62.991
rwrist -17.2431
rhand -24.0371 11.4886
rfingers 7.12502
rthumb 2.4415 -18.4772
lclavicle -4.92986e-014 -2.82274e-014
lhumerus -26.3913 -19.8988 103.692
lradius 121.122
lwrist 22.1285
lhand -19.3945 -10.6682
lfingers 7.12502
lthumb 6.92437 19.1986
rfemur -71.8566 -12.5799 16.3844
rtibia 100.54
rfoot -10.5851 -5.5644
rtoes -29.0652
lfemur -22.1446 -4.15849 -28.3433
ltibia 50.4323
lfoot -33.8173 -8.78259
ltoes -16.5675
20
root 14.4064 15.9387 -34.8633 26.8173 9.87943 15.9034
lowerback 14.9821 -3.95773 -4.57159
upperback -0.84442 -6.27397 -2.22665
thorax -9.08289 -2.84378 1.57132
lowerneck -15.4276 -7.42303 -8.29607
upperneck -2.13536 -8.72118 8.50812
head 2.53914 -4.0326 3.30663
rclavicle 2.74323e-014 -1.98785e-015
rhumerus -75.4112 0.529708 -83.9407
rradius 63.6506
rwrist -17.0219
rhand -23.8211 11.6856
rfingers 7.12502
rthumb 2.65009 -18.2777
lclavicle 2.74323e-014 -1.98785e-015
lhumerus -25.2715 -21.2864 103.045
lradius 124.256
lwrist 22.672
lhand -19.1847 -10.7648
lfingers 7.12502
lthumb 7.12691 19.0952
rfemur -73.8268 -11.6476 16.2986
rtibia 97.3069
rfoot -11.1729 -6.21418
rtoes -30.1565
lfemur -18.956 -4.20375 -28.0411
ltibia 47.9736
lfoot -30.87 -9.40371
ltoes -19.3578
21
root 14.3741 15.9865 -34.2827 26.5128 9.18555 15.8938
lowerback 14.7015 -3.95427 -4.78009
upperback -0.877193 -6.2917 -2.23461
thorax -8.93706 -2.84889 1.65987
lowerneck -15.5367 -7.53197 -8.5613
upperneck -1.60105 -8.84607 8.6692
head 2.74755 -4.08203 3.37288
rclavicle 4.41302e-014 3.73715e-014
rhumerus -77.1597 1.01167 -84.1729
rradius 64.2158
rwrist -16.9474
rhand -23.6432 11.7406
rfingers 7.12502
rthumb 2.82194 -18.2204
lclavicle 4.41302e-014 3.73715e-014
lhumerus -24.4106 -22.5869 102.314
lradius 127.149
lwrist 22.6267
lhand -19.0299 -10.934
lfingers 7.12502
lthumb 7.27625 18.9209
rfemur -75.2818 -10.6568 16.2081
rtibia 93.5701
rfoot -11.6805 -6.84754
rtoes -31.2346
lfemur -15.7646 -4.14725 -27.7664
ltibia 45.523
lfoot -26.9453 -10.3504
ltoes -21.3449
22
root 14.3389 16.0389 -33.6955 26.0923 8.40226 15.866
lowerback 14.5129 -3.90336 -5.00677
upperback -0.869504 -6.25363 -2.26576
thorax -8.80331 -2.82657 1.72783
lowerneck -15.6784 -7.64468 -8.82509
upperneck -1.03203 -8.97545 8.82508
head 2.97236 -4.13272 3.43531
rclavicle 8.07066e-014 -4.77083e-015
rhumerus -78.6433 1.33049 -84.326
rradius 64.6503
rwrist -16.9067
rhand -23.5139 11.7053
rfingers 7.12502
rthumb 2.94684 -18.2541
lclavicle 8.07066e-014 -4.77083e-015
lhumerus -23.8063 -23.7545 101.564
lradius 129.749
lwrist 22.0729
lhand -18.9231 -11.1965
lfingers 7.12502
lthumb 7.37941 18.6548
rfemur -76.2066 -9.6574 16.1268
rtibia 89.3941
rfoot -12.078 -7.41663
rtoes -32.0239
lfemur -12.5883 -4.00585 -27.5227
ltibia 43.1062
lfoot -21.8688 -11.4115
ltoes -22.2462
23
root 14.3013 16.0941 -33.1027 25.5692 7.54903 15.8272
lowerback 14.4 -3.8138 -5.23633
upperback -0.821824 -6.16877 -2.32632
thorax -8.67514 -2.78236 1.76129
lowerneck -15.8328 -7.75704 -9.07022
upperneck -0.448029 -9.10722 8.96974
head 3.20344 -4.18447 3.4905
rclavicle 3.18055e-014 1.47101e-014
rhumerus -79.8386 1.49924 -84.4006
rradius 64.9385
rwrist -16.8023
rhand -23.4242 11.6103
rfingers 7.12502
rthumb 3.03345 -18.3479
lclavicle 3.18055e-014 1.47101e-014
lhumerus -23.461 -24.7344 100.844
lradius 132.027
lwrist 21.1812
lhand -18.8427 -11.5226
lfingers 7.12502
lthumb 7.45701 18.326
rfemur -76.6394 -8.6963 16.0931
rtibia 84.8451
rfoot -12.3684 -7.8761
rtoes -32.6376
lfemur -9.47177 -3.81923 -27.312
ltibia 40.7539
lfoot -15.7472 -12.2332
ltoes -22.3391
24
root 14.2609 16.1494 -32.5067 24.9931 6.69662 15.8239
lowerback 14.3541 -3.71407 -5.4767
upperback -0.751009 -6.07713 -2.41426
thorax -8.56302 -2.7346 1.77502
lowerneck -16.009 -7.86421 -9.28203
upperneck 0.15412 -9.23618 9.08945
head 3.44131 -4.23496 3.5322
rclavicle 2.84262e-014 4.37326e-015
rhumerus -80.738 1.54626 -84.3997
rradius 65.0846
rwrist -16.5977
rhand -23.355 11.5168
rfingers 7.12502
rthumb 3.10024 -18.4404
lclavicle 2.84262e-014 4.37326e-015
lhumerus -23.3683 -25.4929 100.197
lradius 133.956
lwrist 20.149
lhand -18.7963 -11.8864
lfingers 7.12502
lthumb 7.50174 17.9605
rfemur -76.6625 -7.86984 16.1261
rtibia 80.0007
rfoot -12.4656 -8.1894
rtoes -33.0059
lfemur -6.49003 -3.71777 -27.1572
ltibia 38.5122
lfoot -8.89984 -12.7073
ltoes -21.3347
25
root 14.2182 16.2021 -31.9087 24.389 5.87215 15.8688
lowerback 14.3447 -3.61638 -5.733
upperback -0.660411 -5.99372 -2.52511
thorax -8.45108 -2.6909 1.77716
lowerneck -16.1761 -7.95745 -9.4512
upperneck 0.740314 -9.35287 9.17901
head 3.66921 -4.28073 3.55976
rclavicle 7.77248e-014 6.79844e-014
rhumerus -81.3414 1.50919 -84.3376
rradius 65.1099
rwrist -16.3061
rhand -23.3051 11.4192
rfingers 7.12502
rthumb 3.14844 -18.5374
lclavicle 7.77248e-014 6.79844e-014
lhumerus -23.508 -25.9837 99.6392
lradius 135.516
lwrist 19.1718
lhand -18.7917 -12.2223
lfingers 7.12502
lthumb 7.50617 17.6245
rfemur -76.3408 -7.21753 16.2522
rtibia 74.939
rfoot -12.2431 -8.33477
rtoes -33.0601
lfemur -3.68432 -3.79416 -27.0854
ltibia 36.4529
lfoot -1.99111 -12.9522
ltoes -19.2741
26
root 14.174 16.2501 -31.3098 23.7777 5.11598 15.9911
lowerback 14.3613 -3.53537 -6.01397
upperback -0.553016 -5.9387 -2.65583
thorax -8.33413 -2.66077 1.77893
lowerneck -16.3369 -8.03379 -9.58517
upperneck 1.29551 -9.45112 9.24438
head 3.88289 -4.31856 3.57702
rclavicle -3.65764e-014 2.3059e-014
rhumerus -81.6532 1.41621 -84.2257
rradius 65.0374
rwrist -15.9741
rhand -23.2651 11.3198
rfingers 7.12502
rthumb 3.18707 -18.6361
lclavicle -3.65764e-014 2.3059e-014
lhumerus -23.8473 -26.1897 99.1776
lradius 136.683
lwrist 18.3597
lhand -18.8369 -12.5017
lfingers 7.12502
lthumb 7.46262 17.3467
rfemur -75.7384 -6.79734 16.4812
rtibia 69.7719
rfoot -11.6216 -8.34401
rtoes -32.6557
lfemur -1.12116 -4.13332 -27.14
ltibia 34.7324
lfoot 4.20388 -13.2008
ltoes -16.2985
27
root 14.1288 16.2907 -30.7111 23.1858 4.46026 16.2092
lowerback 14.3763 -3.47981 -6.33102
upperback -0.437233 -5.92319 -2.79779
thorax -8.2025 -2.64937 1.79596
lowerneck -16.4615 -8.09658 -9.68844
upperneck 1.79539 -9.53517 9.27833
head 4.07019 -4.35198 3.58324
rclavicle -1.98785e-014 -1.98785e-014
rhumerus -81.7003 1.28987 -84.072
rradius 64.8946
rwrist -15.6681
rhand -23.2428 11.2292
rfingers 7.12502
rthumb 3.20859 -18.7264
lclavicle -1.98785e-014 -1.98785e-014
lhumerus -24.3679 -26.0964 98.818
lradius 137.44
lwrist 17.7815
lhand -18.9105 -12.6773
lfingers 7.12502
lthumb 7.3915 17.1736
rfemur -74.932 -6.65249 16.8313
rtibia 64.5901
rfoot -10.5063 -8.29523
rtoes -31.8149
lfemur 1.17228 -4.76401 -27.3446
ltibia 33.4376
lfoot 9.08315 -13.563
ltoes -12.8199
28
root 14.0851 16.3089 -30.1167 22.6226 3.94185 16.5473
lowerback 14.3884 -3.45564 -6.69857
upperback -0.316857 -5.95682 -2.94442
thorax -8.05659 -2.66071 1.84486
lowerneck -16.5193 -8.1495 -9.78426
upperneck 2.20761 -9.60736 9.29772
head 4.21842 -4.38269 3.58832
rclavicle 5.96354e-016 -2.98177e-014
rhumerus -81.51 1.13944 -83.8822
rradius 64.704
rwrist -15.4605
rhand -23.2496 11.1504
rfingers 7.12502
rthumb 3.20205 -18.8053
lclavicle 5.96354e-016 -2.98177e-014
lhumerus -25.0351 -25.7185 98.5639
lradius 137.77
lwrist 17.4503
lhand -19.0272 -12.7275
lfingers 7.12502
lthumb 7.27886 17.1273
rfemur -74.0561 -6.82298 17.302
rtibia 59.5521
rfoot -8.87791 -8.26526
rtoes -30.619
lfemur 3.1561 -5.64572 -27.706
ltibia 32.7338
lfoot 12.2667 -13.9363
ltoes -9.60466
29
root 14.0399 16.3257 -29.5218 22.0972 3.56543 17.0019
lowerback 14.3814 -3.45382 -7.12192
upperback -0.192879 -6.02612 -3.08907
thorax -7.88734 -2.6886 1.93134
lowerneck -16.5044 -8.20557 -9.88775
upperneck 2.5235 -9.68282 9.31124
head 4.3263 -4.41817 3.59586
rclavicle 5.4467e-014 5.56597e-015
rhumerus -81.11 0.955769 -83.6601
rradius 64.4874
rwrist -15.4076
rhand -23.2969 11.0704
rfingers 7.12502
rthumb 3.15637 -18.886
lclavicle 5.4467e-014 5.56597e-015
lhumerus -25.8148 -25.0844 98.4178
lradius 137.658
lwrist 17.3278
lhand -19.166 -12.7005
lfingers 7.12502
lthumb 7.14489 17.1589
rfemur -73.0473 -7.31557 17.9025
rtibia 54.71
rfoot -6.90752 -8.29388
rtoes -29.047
lfemur 4.78363 -6.64473 -28.1841
ltibia 32.6959
lfoot 13.7929 -14.1196
ltoes -7.34769
30
root 13.9942 16.3295 -28.9295 21.6157 3.34983 17.566
lowerback 14.3489 -3.47264 -7.59991
upperback -0.0670842 -6.1268 -3.22273
thorax -7.69193 -2.73132 2.06259
lowerneck -16.4001 -8.27294 -10.0261
upperneck 2.73996 -9.77025 9.33917
head 4.39341 -4.46246 3.61591
rclavicle -1.41137e-014 3.02153e-014
rhumerus -80.5264 0.731096 -83.4082
rradius 64.2558
rwrist -15.5439
rhand -23.3887 10.972
rfingers 7.12502
rthumb 3.06774 -18.9857
lclavicle -1.41137e-014 3.02153e-014
lhumerus -26.6799 -24.2444 98.3839
lradius 137.108
lwrist 17.3426
lhand -19.3739 -12.5729
lfingers 7.12502
lthumb 6.94422 17.2932
rfemur -72.0471 -8.1367 18.6603
rtibia 50.2504
rfoot -4.71892 -8.34512
rtoes -26.9324
lfemur 6.00752 -7.61483 -28.7013
ltibia 33.4138
lfoot 13.9451 -14.0723
ltoes -6.32258
